<svg xmlns="http://www.w3.org/2000/svg" width="30.645" height="78.714" viewBox="0 0 30.645 78.714">
  <g id="scroll" transform="translate(-885.087 -943.973)">
    <g id="Path_2" data-name="Path 2" transform="translate(888 939)" fill="none">
      <path d="M12,4.973c6.627,0,15.732,15.622,15.732,41.027S18.627,83.687,12,83.687-2.913,71.405-2.913,46,5.373,4.973,12,4.973Z" stroke="none"/>
      <path d="M 11.99999713897705 8.972770690917969 C 11.78773975372314 8.972770690917969 10.9824686050415 9.249946594238281 9.820696830749512 10.51558685302734 C 8.823511123657227 11.60194396972656 7.309555053710938 13.69123077392578 5.759939193725586 17.47533416748047 C 2.746654510498047 24.83368682861328 1.087154388427734 34.96394729614258 1.087154388427734 46.00000381469727 C 1.087154388427734 51.79543304443359 1.534782409667969 57.13608932495117 2.417612075805664 61.8736457824707 C 3.196697235107422 66.05442810058594 4.296468734741211 69.69230651855469 5.686382293701172 72.68620300292969 C 7.150768280029297 75.84053039550781 8.601083755493164 77.538330078125 9.559868812561035 78.40714263916016 C 10.45763969421387 79.22067260742188 11.34702587127686 79.687255859375 11.99999713897705 79.687255859375 C 12.32788276672363 79.687255859375 13.24083995819092 79.556884765625 14.63336849212646 78.34927368164063 C 15.65438270568848 77.46384429931641 17.20071029663086 75.74595642089844 18.76919746398926 72.59021759033203 C 20.26176834106445 69.58720397949219 21.44475364685059 65.96094512939453 22.28529739379883 61.81216049194336 C 23.24509811401367 57.07471466064453 23.73175430297852 51.75474548339844 23.73175430297852 46.00000381469727 C 23.73175430297852 35.08288955688477 21.94042587280273 24.98467254638672 18.68776893615723 17.56557464599609 C 17.03149795532227 13.78773498535156 15.42406845092773 11.68135833740234 14.36726856231689 10.57955932617188 C 13.14821147918701 9.308586120605469 12.28572559356689 8.972770690917969 11.99999713897705 8.972770690917969 M 11.99999713897705 4.972770690917969 C 18.62741088867188 4.972770690917969 27.73175430297852 20.59490203857422 27.73175430297852 46.00000381469727 C 27.73175430297852 71.40510559082031 18.62741088867188 83.68726348876953 11.99999713897705 83.68726348876953 C 5.372583389282227 83.68726348876953 -2.912845611572266 71.40510559082031 -2.912845611572266 46.00000381469727 C -2.912845611572266 20.59490203857422 5.372583389282227 4.972770690917969 11.99999713897705 4.972770690917969 Z" stroke="none" fill="#f10b0b"/>
    </g>
    <line id="Line_1" data-name="Line 1" y2="26" transform="translate(900.5 986.5)" fill="none" stroke="#f11212" stroke-width="4"/>
  </g>
</svg>
