<svg xmlns="http://www.w3.org/2000/svg" viewBox="0 0 25 70"><defs><style>.cls-1{fill:#fff;}.cls-2{fill:#0f3;}</style></defs><title>Asset 1</title><g id="Layer_2" data-name="Layer 2"><g id="Layer_1-2" data-name="Layer 1"><rect class="cls-1" x="1.5" y="1.5" width="22" height="67" rx="5.52"/><path class="cls-2" d="M18,3a4,4,0,0,1,4,4V63a4,4,0,0,1-4,4H7a4,4,0,0,1-4-4V7A4,4,0,0,1,7,3H18m0-3H7A7,7,0,0,0,0,7V63a7,7,0,0,0,7,7H18a7,7,0,0,0,7-7V7a7,7,0,0,0-7-7Z"/><path class="cls-2" d="M12.5,55.29a3.86,3.86,0,0,1-3.86-3.85V18.56a3.86,3.86,0,0,1,7.72,0V51.44A3.86,3.86,0,0,1,12.5,55.29Z"/><path class="cls-1" d="M12.5,16.21a2.36,2.36,0,0,1,2.36,2.35V51.44a2.36,2.36,0,0,1-4.72,0V18.56a2.36,2.36,0,0,1,2.36-2.35m0-3a5.36,5.36,0,0,0-5.36,5.35V51.44a5.36,5.36,0,0,0,10.72,0V18.56a5.36,5.36,0,0,0-5.36-5.35Z"/></g></g></svg>